ffmpeg started on 2026-03-22 at 17:20:56
Report written to "D:\Convert\FFMetrics\reports\psnr_report-6.txt"
Log level: 32
Command line:
ffmpeg -hide_banner -nostdin -r 24000/1001 -i "F:\\Convert\\files\\[DC] Make Heroine ga Oosugiru - 07_Telegram_HEVC(235).mkv" -r 24000/1001 -i "F:\\Convert\\files\\[DC] Make Heroine ga Oosugiru - 07_Telegram.mp4" -lavfi "[0:v]settb=AVTB,setpts=PTS-STARTPTS,format=pix_fmts=yuv420p10le,fps=24000/1001,scale=1920:1080:flags=lanczos:param0=3:out_range=limited:out_color_matrix=bt709:out_chroma_loc=left,setsar=1/1,setdar=(1920/1080)*(1/1),colorspace=format=yuv420p10:range=tv:primaries=bt709:trc=bt709:space=bt709:fast=0[main];[1:v]settb=AVTB,setpts=PTS-STARTPTS,format=pix_fmts=yuv420p,fps=24000/1001,scale=1920:1080:flags=lanczos:param0=3:out_range=limited:out_color_matrix=bt709:out_chroma_loc=left,setsar=1.000,setdar=1.778,colorspace=format=yuv420p:range=tv:primaries=bt709:trc=bt709:space=bt709:fast=0[ref];[main][ref]psnr=eof_action=endall:stats_file='D\\:/Convert/FFMetrics/logs/psnr_logfile-6.txt'" -f null -
Input #0, matroska,webm, from 'F:\Convert\files\[DC] Make Heroine ga Oosugiru - 07_Telegram_HEVC(235).mkv':
  Metadata:
    COMPATIBLE_BRANDS: isomiso2avc1mp41
    MAJOR_BRAND     : isom
    MINOR_VERSION   : 512
    ENCODER         : Lavf61.7.100
  Duration: 00:24:06.79, start: -0.021000, bitrate: 983 kb/s
  Stream #0:0: Video: hevc (Main 10), yuv420p10le(tv, bt709, progressive), 1920x1080 [SAR 1:1 DAR 16:9], 23.98 fps, 23.98 tbr, 1k tbn (default)
      Metadata:
        HANDLER_NAME    : VideoHandler
        VENDOR_ID       : [0][0][0][0]
        ENCODER         : Lavc61.19.100 libx265
        BPS             : 786667
        DURATION        : 00:24:06.569708333
        NUMBER_OF_FRAMES: 34683
        NUMBER_OF_BYTES : 142246128
        _STATISTICS_WRITING_APP: mkvpropedit v94.0 ('Initiate') 64-bit
        _STATISTICS_WRITING_DATE_UTC: 2026-03-21 14:07:38
        _STATISTICS_TAGS: BPS DURATION NUMBER_OF_FRAMES NUMBER_OF_BYTES
  Stream #0:1: Audio: aac (LC), 48000 Hz, stereo, fltp (default)
      Metadata:
        HANDLER_NAME    : SoundHandler
        VENDOR_ID       : [0][0][0][0]
        ENCODER         : Lavc61.19.100 aac
        BPS             : 193194
        DURATION        : 00:24:06.784000000
        NUMBER_OF_FRAMES: 67819
        NUMBER_OF_BYTES : 34938755
        _STATISTICS_WRITING_APP: mkvpropedit v94.0 ('Initiate') 64-bit
        _STATISTICS_WRITING_DATE_UTC: 2026-03-21 14:07:38
        _STATISTICS_TAGS: BPS DURATION NUMBER_OF_FRAMES NUMBER_OF_BYTES
Input #1, mov,mp4,m4a,3gp,3g2,mj2, from 'F:\Convert\files\[DC] Make Heroine ga Oosugiru - 07_Telegram.mp4':
  Metadata:
    major_brand     : isom
    minor_version   : 512
    compatible_brands: isomiso2avc1mp41
    encoder         : Lavf60.16.100
  Duration: 00:24:06.74, start: 0.000000, bitrate: 3764 kb/s
  Stream #1:0[0x1](und): Video: h264 (High) (avc1 / 0x31637661), yuv420p(tv, bt709, progressive), 1920x1080 [SAR 1:1 DAR 16:9], 3616 kb/s, 23.98 fps, 23.98 tbr, 24k tbn (default)
      Metadata:
        handler_name    : VideoHandler
        vendor_id       : [0][0][0][0]
        encoder         : Lavc60.31.102 h264_qsv
  Stream #1:1[0x2](und): Audio: aac (HE-AACv2) (mp4a / 0x6134706D), 48000 Hz, stereo, fltp, 144 kb/s (default)
      Metadata:
        handler_name    : SoundHandler
        vendor_id       : [0][0][0][0]
Stream mapping:
  Stream #0:0 (hevc) -> settb:default
  Stream #1:0 (h264) -> settb:default
  psnr:default -> Stream #0:0 (wrapped_avframe)
  Stream #0:1 -> #0:1 (aac (native) -> pcm_s16le (native))
Output #0, null, to 'pipe:':
  Metadata:
    COMPATIBLE_BRANDS: isomiso2avc1mp41
    MAJOR_BRAND     : isom
    MINOR_VERSION   : 512
    encoder         : Lavf61.7.100
  Stream #0:0: Video: wrapped_avframe, yuv420p10le(tv, bt709, progressive), 1920x1080 [SAR 1:1 DAR 16:9], q=2-31, 200 kb/s, 23.98 fps, 23.98 tbn
      Metadata:
        encoder         : Lavc61.19.100 wrapped_avframe
  Stream #0:1: Audio: pcm_s16le, 48000 Hz, stereo, s16, 1536 kb/s (default)
      Metadata:
        HANDLER_NAME    : SoundHandler
        VENDOR_ID       : [0][0][0][0]
        _STATISTICS_TAGS: BPS DURATION NUMBER_OF_FRAMES NUMBER_OF_BYTES
        BPS             : 193194
        DURATION        : 00:24:06.784000000
        NUMBER_OF_FRAMES: 67819
        NUMBER_OF_BYTES : 34938755
        _STATISTICS_WRITING_APP: mkvpropedit v94.0 ('Initiate') 64-bit
        _STATISTICS_WRITING_DATE_UTC: 2026-03-21 14:07:38
        encoder         : Lavc61.19.100 pcm_s16le
frame=  139 fps=0.0 q=-0.0 size=N/A time=00:00:05.79 bitrate=N/A speed=11.2x    frame=  331 fps=321 q=-0.0 size=N/A time=00:00:13.80 bitrate=N/A speed=13.4x    frame=  523 fps=340 q=-0.0 size=N/A time=00:00:21.81 bitrate=N/A speed=14.2x    frame=  724 fps=350 q=-0.0 size=N/A time=00:00:30.19 bitrate=N/A speed=14.6x    frame=  908 fps=352 q=-0.0 size=N/A time=00:00:37.87 bitrate=N/A speed=14.7x    frame= 1050 fps=340 q=-0.0 size=N/A time=00:00:43.79 bitrate=N/A speed=14.2x    frame= 1207 fps=335 q=-0.0 size=N/A time=00:00:50.34 bitrate=N/A speed=  14x    frame= 1375 fps=333 q=-0.0 size=N/A time=00:00:57.34 bitrate=N/A speed=13.9x    frame= 1533 fps=330 q=-0.0 size=N/A time=00:01:03.93 bitrate=N/A speed=13.8x    frame= 1674 fps=325 q=-0.0 size=N/A time=00:01:09.81 bitrate=N/A speed=13.5x    frame= 1842 fps=325 q=-0.0 size=N/A time=00:01:16.82 bitrate=N/A speed=13.6x    frame= 2011 fps=325 q=-0.0 size=N/A time=00:01:23.87 bitrate=N/A speed=13.6x    frame= 2116 fps=315 q=-0.0 size=N/A time=00:01:28.25 bitrate=N/A speed=13.2x    frame= 2266 fps=314 q=-0.0 size=N/A time=00:01:34.51 bitrate=N/A speed=13.1x    frame= 2410 fps=312 q=-0.0 size=N/A time=00:01:40.51 bitrate=N/A speed=  13x    frame= 2549 fps=309 q=-0.0 size=N/A time=00:01:46.31 bitrate=N/A speed=12.9x    frame= 2718 fps=310 q=-0.0 size=N/A time=00:01:53.36 bitrate=N/A speed=12.9x    frame= 2885 fps=311 q=-0.0 size=N/A time=00:02:00.32 bitrate=N/A speed=  13x    frame= 3061 fps=313 q=-0.0 size=N/A time=00:02:07.66 bitrate=N/A speed=  13x    frame= 3266 fps=317 q=-0.0 size=N/A time=00:02:16.21 bitrate=N/A speed=13.2x    frame= 3468 fps=320 q=-0.0 size=N/A time=00:02:24.64 bitrate=N/A speed=13.4x    frame= 3631 fps=320 q=-0.0 size=N/A time=00:02:31.44 bitrate=N/A speed=13.4x    frame= 3831 fps=323 q=-0.0 size=N/A time=00:02:39.78 bitrate=N/A speed=13.5x    frame= 4033 fps=326 q=-0.0 size=N/A time=00:02:48.20 bitrate=N/A speed=13.6x    frame= 4231 fps=328 q=-0.0 size=N/A time=00:02:56.46 bitrate=N/A speed=13.7x    frame= 4432 fps=330 q=-0.0 size=N/A time=00:03:04.85 bitrate=N/A speed=13.8x    frame= 4622 fps=332 q=-0.0 size=N/A time=00:03:12.77 bitrate=N/A speed=13.8x    frame= 4811 fps=333 q=-0.0 size=N/A time=00:03:20.65 bitrate=N/A speed=13.9x    frame= 5006 fps=335 q=-0.0 size=N/A time=00:03:28.79 bitrate=N/A speed=  14x    frame= 5211 fps=337 q=-0.0 size=N/A time=00:03:37.34 bitrate=N/A speed=  14x    frame= 5409 fps=338 q=-0.0 size=N/A time=00:03:45.60 bitrate=N/A speed=14.1x    frame= 5603 fps=340 q=-0.0 size=N/A time=00:03:53.69 bitrate=N/A speed=14.2x    frame= 5802 fps=341 q=-0.0 size=N/A time=00:04:01.99 bitrate=N/A speed=14.2x    frame= 6003 fps=342 q=-0.0 size=N/A time=00:04:10.37 bitrate=N/A speed=14.3x    frame= 6204 fps=343 q=-0.0 size=N/A time=00:04:18.75 bitrate=N/A speed=14.3x    frame= 6400 fps=344 q=-0.0 size=N/A time=00:04:26.93 bitrate=N/A speed=14.4x    frame= 6596 fps=346 q=-0.0 size=N/A time=00:04:35.10 bitrate=N/A speed=14.4x    frame= 6803 fps=347 q=-0.0 size=N/A time=00:04:43.74 bitrate=N/A speed=14.5x    frame= 6999 fps=348 q=-0.0 size=N/A time=00:04:51.91 bitrate=N/A speed=14.5x    frame= 7192 fps=348 q=-0.0 size=N/A time=00:04:59.96 bitrate=N/A speed=14.5x    frame= 7388 fps=349 q=-0.0 size=N/A time=00:05:08.14 bitrate=N/A speed=14.6x    frame= 7575 fps=349 q=-0.0 size=N/A time=00:05:15.94 bitrate=N/A speed=14.6x    frame= 7767 fps=350 q=-0.0 size=N/A time=00:05:23.94 bitrate=N/A speed=14.6x    frame= 7964 fps=351 q=-0.0 size=N/A time=00:05:32.16 bitrate=N/A speed=14.6x    frame= 8158 fps=351 q=-0.0 size=N/A time=00:05:40.25 bitrate=N/A speed=14.6x    frame= 8348 fps=351 q=-0.0 size=N/A time=00:05:48.18 bitrate=N/A speed=14.7x    frame= 8523 fps=351 q=-0.0 size=N/A time=00:05:55.48 bitrate=N/A speed=14.6x    frame= 8722 fps=352 q=-0.0 size=N/A time=00:06:03.78 bitrate=N/A speed=14.7x    frame= 8922 fps=353 q=-0.0 size=N/A time=00:06:12.12 bitrate=N/A speed=14.7x    frame= 9113 fps=353 q=-0.0 size=N/A time=00:06:20.08 bitrate=N/A speed=14.7x    frame= 9311 fps=354 q=-0.0 size=N/A time=00:06:28.34 bitrate=N/A speed=14.8x    frame= 9504 fps=354 q=-0.0 size=N/A time=00:06:36.39 bitrate=N/A speed=14.8x    frame= 9711 fps=355 q=-0.0 size=N/A time=00:06:45.02 bitrate=N/A speed=14.8x    frame= 9908 fps=355 q=-0.0 size=N/A time=00:06:53.24 bitrate=N/A speed=14.8x    frame=10095 fps=356 q=-0.0 size=N/A time=00:07:01.04 bitrate=N/A speed=14.8x    frame=10298 fps=356 q=-0.0 size=N/A time=00:07:09.51 bitrate=N/A speed=14.9x    frame=10487 fps=356 q=-0.0 size=N/A time=00:07:17.39 bitrate=N/A speed=14.9x    frame=10687 fps=357 q=-0.0 size=N/A time=00:07:25.73 bitrate=N/A speed=14.9x    frame=10888 fps=357 q=-0.0 size=N/A time=00:07:34.12 bitrate=N/A speed=14.9x    frame=11089 fps=358 q=-0.0 size=N/A time=00:07:42.50 bitrate=N/A speed=14.9x    frame=11276 fps=358 q=-0.0 size=N/A time=00:07:50.30 bitrate=N/A speed=14.9x    frame=11471 fps=358 q=-0.0 size=N/A time=00:07:58.43 bitrate=N/A speed=  15x    frame=11669 fps=359 q=-0.0 size=N/A time=00:08:06.69 bitrate=N/A speed=  15x    frame=11871 fps=359 q=-0.0 size=N/A time=00:08:15.11 bitrate=N/A speed=  15x    frame=12068 fps=360 q=-0.0 size=N/A time=00:08:23.33 bitrate=N/A speed=  15x    frame=12262 fps=360 q=-0.0 size=N/A time=00:08:31.42 bitrate=N/A speed=  15x    frame=12460 fps=360 q=-0.0 size=N/A time=00:08:39.68 bitrate=N/A speed=  15x    frame=12653 fps=361 q=-0.0 size=N/A time=00:08:47.73 bitrate=N/A speed=  15x    frame=12854 fps=361 q=-0.0 size=N/A time=00:08:56.11 bitrate=N/A speed=15.1x    frame=13038 fps=361 q=-0.0 size=N/A time=00:09:03.79 bitrate=N/A speed=15.1x    frame=13234 fps=361 q=-0.0 size=N/A time=00:09:11.96 bitrate=N/A speed=15.1x    frame=13419 fps=361 q=-0.0 size=N/A time=00:09:19.68 bitrate=N/A speed=15.1x    frame=13610 fps=361 q=-0.0 size=N/A time=00:09:27.65 bitrate=N/A speed=15.1x    frame=13806 fps=362 q=-0.0 size=N/A time=00:09:35.82 bitrate=N/A speed=15.1x    frame=13997 fps=362 q=-0.0 size=N/A time=00:09:43.79 bitrate=N/A speed=15.1x    frame=14188 fps=362 q=-0.0 size=N/A time=00:09:51.75 bitrate=N/A speed=15.1x    frame=14383 fps=362 q=-0.0 size=N/A time=00:09:59.89 bitrate=N/A speed=15.1x    frame=14583 fps=362 q=-0.0 size=N/A time=00:10:08.23 bitrate=N/A speed=15.1x    frame=14775 fps=363 q=-0.0 size=N/A time=00:10:16.24 bitrate=N/A speed=15.1x    frame=14976 fps=363 q=-0.0 size=N/A time=00:10:24.62 bitrate=N/A speed=15.1x    frame=15147 fps=362 q=-0.0 size=N/A time=00:10:31.75 bitrate=N/A speed=15.1x    frame=15342 fps=363 q=-0.0 size=N/A time=00:10:39.88 bitrate=N/A speed=15.1x    frame=15539 fps=363 q=-0.0 size=N/A time=00:10:48.10 bitrate=N/A speed=15.1x    frame=15736 fps=363 q=-0.0 size=N/A time=00:10:56.32 bitrate=N/A speed=15.1x    frame=15938 fps=363 q=-0.0 size=N/A time=00:11:04.74 bitrate=N/A speed=15.2x    frame=16139 fps=364 q=-0.0 size=N/A time=00:11:13.13 bitrate=N/A speed=15.2x    frame=16339 fps=364 q=-0.0 size=N/A time=00:11:21.47 bitrate=N/A speed=15.2x    frame=16536 fps=364 q=-0.0 size=N/A time=00:11:29.68 bitrate=N/A speed=15.2x    frame=16745 fps=365 q=-0.0 size=N/A time=00:11:38.40 bitrate=N/A speed=15.2x    frame=16945 fps=365 q=-0.0 size=N/A time=00:11:46.74 bitrate=N/A speed=15.2x    frame=17152 fps=365 q=-0.0 size=N/A time=00:11:55.38 bitrate=N/A speed=15.2x    frame=17347 fps=365 q=-0.0 size=N/A time=00:12:03.51 bitrate=N/A speed=15.2x    frame=17547 fps=366 q=-0.0 size=N/A time=00:12:11.85 bitrate=N/A speed=15.2x    frame=17743 fps=366 q=-0.0 size=N/A time=00:12:20.03 bitrate=N/A speed=15.3x    frame=17936 fps=366 q=-0.0 size=N/A time=00:12:28.08 bitrate=N/A speed=15.3x    frame=18145 fps=366 q=-0.0 size=N/A time=00:12:36.79 bitrate=N/A speed=15.3x    frame=18334 fps=366 q=-0.0 size=N/A time=00:12:44.68 bitrate=N/A speed=15.3x    frame=18531 fps=366 q=-0.0 size=N/A time=00:12:52.89 bitrate=N/A speed=15.3x    frame=18729 fps=367 q=-0.0 size=N/A time=00:13:01.15 bitrate=N/A speed=15.3x    frame=18931 fps=367 q=-0.0 size=N/A time=00:13:09.58 bitrate=N/A speed=15.3x    frame=19133 fps=367 q=-0.0 size=N/A time=00:13:18.00 bitrate=N/A speed=15.3x    frame=19343 fps=367 q=-0.0 size=N/A time=00:13:26.76 bitrate=N/A speed=15.3x    frame=19544 fps=368 q=-0.0 size=N/A time=00:13:35.14 bitrate=N/A speed=15.3x    frame=19742 fps=368 q=-0.0 size=N/A time=00:13:43.40 bitrate=N/A speed=15.3x    frame=19948 fps=368 q=-0.0 size=N/A time=00:13:51.99 bitrate=N/A speed=15.4x    frame=20148 fps=368 q=-0.0 size=N/A time=00:14:00.33 bitrate=N/A speed=15.4x    frame=20350 fps=369 q=-0.0 size=N/A time=00:14:08.76 bitrate=N/A speed=15.4x    frame=20536 fps=368 q=-0.0 size=N/A time=00:14:16.52 bitrate=N/A speed=15.4x    frame=20720 fps=368 q=-0.0 size=N/A time=00:14:24.19 bitrate=N/A speed=15.4x    frame=20932 fps=369 q=-0.0 size=N/A time=00:14:33.03 bitrate=N/A speed=15.4x    frame=21131 fps=369 q=-0.0 size=N/A time=00:14:41.33 bitrate=N/A speed=15.4x    frame=21327 fps=369 q=-0.0 size=N/A time=00:14:49.51 bitrate=N/A speed=15.4x    frame=21537 fps=369 q=-0.0 size=N/A time=00:14:58.27 bitrate=N/A speed=15.4x    frame=21727 fps=369 q=-0.0 size=N/A time=00:15:06.19 bitrate=N/A speed=15.4x    frame=21930 fps=370 q=-0.0 size=N/A time=00:15:14.66 bitrate=N/A speed=15.4x    frame=22129 fps=370 q=-0.0 size=N/A time=00:15:22.96 bitrate=N/A speed=15.4x    frame=22334 fps=370 q=-0.0 size=N/A time=00:15:31.51 bitrate=N/A speed=15.4x    frame=22547 fps=370 q=-0.0 size=N/A time=00:15:40.39 bitrate=N/A speed=15.4x    frame=22739 fps=370 q=-0.0 size=N/A time=00:15:48.40 bitrate=N/A speed=15.4x    frame=22937 fps=370 q=-0.0 size=N/A time=00:15:56.66 bitrate=N/A speed=15.4x    frame=23143 fps=371 q=-0.0 size=N/A time=00:16:05.25 bitrate=N/A speed=15.5x    frame=23352 fps=371 q=-0.0 size=N/A time=00:16:13.97 bitrate=N/A speed=15.5x    frame=23549 fps=371 q=-0.0 size=N/A time=00:16:22.18 bitrate=N/A speed=15.5x    frame=23749 fps=371 q=-0.0 size=N/A time=00:16:30.53 bitrate=N/A speed=15.5x    frame=23948 fps=371 q=-0.0 size=N/A time=00:16:38.83 bitrate=N/A speed=15.5x    frame=24137 fps=371 q=-0.0 size=N/A time=00:16:46.71 bitrate=N/A speed=15.5x    frame=24332 fps=371 q=-0.0 size=N/A time=00:16:54.84 bitrate=N/A speed=15.5x    frame=24526 fps=371 q=-0.0 size=N/A time=00:17:02.93 bitrate=N/A speed=15.5x    frame=24719 fps=371 q=-0.0 size=N/A time=00:17:10.98 bitrate=N/A speed=15.5x    frame=24902 fps=371 q=-0.0 size=N/A time=00:17:18.62 bitrate=N/A speed=15.5x    frame=25101 fps=371 q=-0.0 size=N/A time=00:17:26.92 bitrate=N/A speed=15.5x    frame=25298 fps=371 q=-0.0 size=N/A time=00:17:35.13 bitrate=N/A speed=15.5x    frame=25502 fps=371 q=-0.0 size=N/A time=00:17:43.64 bitrate=N/A speed=15.5x    frame=25701 fps=372 q=-0.0 size=N/A time=00:17:51.94 bitrate=N/A speed=15.5x    frame=25887 fps=371 q=-0.0 size=N/A time=00:17:59.70 bitrate=N/A speed=15.5x    frame=26087 fps=372 q=-0.0 size=N/A time=00:18:08.04 bitrate=N/A speed=15.5x    frame=26283 fps=372 q=-0.0 size=N/A time=00:18:16.22 bitrate=N/A speed=15.5x    frame=26481 fps=372 q=-0.0 size=N/A time=00:18:24.47 bitrate=N/A speed=15.5x    frame=26678 fps=372 q=-0.0 size=N/A time=00:18:32.69 bitrate=N/A speed=15.5x    frame=26870 fps=372 q=-0.0 size=N/A time=00:18:40.70 bitrate=N/A speed=15.5x    frame=27057 fps=372 q=-0.0 size=N/A time=00:18:48.50 bitrate=N/A speed=15.5x    frame=27248 fps=372 q=-0.0 size=N/A time=00:18:56.46 bitrate=N/A speed=15.5x    frame=27438 fps=372 q=-0.0 size=N/A time=00:19:04.39 bitrate=N/A speed=15.5x    frame=27626 fps=372 q=-0.0 size=N/A time=00:19:12.23 bitrate=N/A speed=15.5x    frame=27826 fps=372 q=-0.0 size=N/A time=00:19:20.57 bitrate=N/A speed=15.5x    frame=28022 fps=372 q=-0.0 size=N/A time=00:19:28.75 bitrate=N/A speed=15.5x    frame=28214 fps=372 q=-0.0 size=N/A time=00:19:36.75 bitrate=N/A speed=15.5x    frame=28409 fps=372 q=-0.0 size=N/A time=00:19:44.89 bitrate=N/A speed=15.5x    frame=28606 fps=372 q=-0.0 size=N/A time=00:19:53.10 bitrate=N/A speed=15.5x    frame=28790 fps=372 q=-0.0 size=N/A time=00:20:00.78 bitrate=N/A speed=15.5x    frame=28962 fps=372 q=-0.0 size=N/A time=00:20:07.95 bitrate=N/A speed=15.5x    frame=29141 fps=371 q=-0.0 size=N/A time=00:20:15.42 bitrate=N/A speed=15.5x    frame=29323 fps=371 q=-0.0 size=N/A time=00:20:23.01 bitrate=N/A speed=15.5x    frame=29502 fps=371 q=-0.0 size=N/A time=00:20:30.47 bitrate=N/A speed=15.5x    frame=29683 fps=371 q=-0.0 size=N/A time=00:20:38.02 bitrate=N/A speed=15.5x    frame=29859 fps=371 q=-0.0 size=N/A time=00:20:45.36 bitrate=N/A speed=15.5x    frame=30028 fps=371 q=-0.0 size=N/A time=00:20:52.41 bitrate=N/A speed=15.5x    frame=30213 fps=370 q=-0.0 size=N/A time=00:21:00.13 bitrate=N/A speed=15.5x    frame=30399 fps=370 q=-0.0 size=N/A time=00:21:07.89 bitrate=N/A speed=15.5x    frame=30602 fps=371 q=-0.0 size=N/A time=00:21:16.35 bitrate=N/A speed=15.5x    frame=30806 fps=371 q=-0.0 size=N/A time=00:21:24.86 bitrate=N/A speed=15.5x    frame=30999 fps=371 q=-0.0 size=N/A time=00:21:32.91 bitrate=N/A speed=15.5x    frame=31199 fps=371 q=-0.0 size=N/A time=00:21:41.25 bitrate=N/A speed=15.5x    frame=31389 fps=371 q=-0.0 size=N/A time=00:21:49.18 bitrate=N/A speed=15.5x    frame=31584 fps=371 q=-0.0 size=N/A time=00:21:57.31 bitrate=N/A speed=15.5x    frame=31779 fps=371 q=-0.0 size=N/A time=00:22:05.44 bitrate=N/A speed=15.5x    frame=31960 fps=371 q=-0.0 size=N/A time=00:22:12.99 bitrate=N/A speed=15.5x    frame=32150 fps=371 q=-0.0 size=N/A time=00:22:20.92 bitrate=N/A speed=15.5x    frame=32339 fps=371 q=-0.0 size=N/A time=00:22:28.80 bitrate=N/A speed=15.5x    frame=32535 fps=371 q=-0.0 size=N/A time=00:22:36.98 bitrate=N/A speed=15.5x    frame=32696 fps=370 q=-0.0 size=N/A time=00:22:43.69 bitrate=N/A speed=15.5x    frame=32850 fps=370 q=-0.0 size=N/A time=00:22:50.11 bitrate=N/A speed=15.4x    frame=33037 fps=370 q=-0.0 size=N/A time=00:22:57.91 bitrate=N/A speed=15.4x    frame=33219 fps=370 q=-0.0 size=N/A time=00:23:05.50 bitrate=N/A speed=15.4x    frame=33396 fps=370 q=-0.0 size=N/A time=00:23:12.89 bitrate=N/A speed=15.4x    frame=33563 fps=369 q=-0.0 size=N/A time=00:23:19.85 bitrate=N/A speed=15.4x    frame=33723 fps=369 q=-0.0 size=N/A time=00:23:26.53 bitrate=N/A speed=15.4x    frame=33847 fps=368 q=-0.0 size=N/A time=00:23:31.70 bitrate=N/A speed=15.4x    frame=33997 fps=368 q=-0.0 size=N/A time=00:23:37.95 bitrate=N/A speed=15.3x    frame=34161 fps=368 q=-0.0 size=N/A time=00:23:44.79 bitrate=N/A speed=15.3x    frame=34315 fps=367 q=-0.0 size=N/A time=00:23:51.22 bitrate=N/A speed=15.3x    frame=34444 fps=367 q=-0.0 size=N/A time=00:23:56.60 bitrate=N/A speed=15.3x    frame=34623 fps=367 q=-0.0 size=N/A time=00:24:04.06 bitrate=N/A speed=15.3x    [Parsed_psnr_16 @ 000001deda52a480] PSNR y:48.959093 u:50.330329 v:50.379438 average:49.376401 min:38.015838 max:inf
[out#0/null @ 000001ded295e740] video:14903KiB audio:271276KiB subtitle:0KiB other streams:0KiB global headers:0KiB muxing overhead: unknown
frame=34683 fps=366 q=-0.0 Lsize=N/A time=00:24:06.57 bitrate=N/A speed=15.3x    
